<svg xmlns="http://www.w3.org/2000/svg" width="32" height="32" viewBox="0 0 172 172"><defs><linearGradient x1="20.74392" y1="56.05767" x2="112.24433" y2="104.70858" gradientUnits="userSpaceOnUse" id="a"><stop offset="0" stop-color="#4caf50"/><stop offset=".489" stop-color="#4aaf50"/><stop offset=".665" stop-color="#43ad50"/><stop offset=".79" stop-color="#38aa50"/><stop offset=".892" stop-color="#27a550"/><stop offset=".978" stop-color="#11a050"/><stop offset="1" stop-color="#0a9e50"/></linearGradient><linearGradient x1="120.32833" y1="157.66667" x2="120.32833" y2="54.47742" gradientUnits="userSpaceOnUse" id="b"><stop offset="0" stop-color="#ffd747"/><stop offset=".482" stop-color="#ffd645"/><stop offset=".655" stop-color="#fed43e"/><stop offset=".779" stop-color="#fccf33"/><stop offset=".879" stop-color="#fac922"/><stop offset=".964" stop-color="#f7c10c"/><stop offset="1" stop-color="#f5bc00"/></linearGradient><linearGradient x1="129.45867" y1="20.43575" x2="41.4735" y2="75.41483" gradientUnits="userSpaceOnUse" id="c"><stop offset="0" stop-color="#f7572f"/><stop offset=".523" stop-color="#f7552d"/><stop offset=".712" stop-color="#f75026"/><stop offset=".846" stop-color="#f7461b"/><stop offset=".954" stop-color="#f7390a"/><stop offset="1" stop-color="#f73100"/></linearGradient><linearGradient x1="68.2625" y1="68.2625" x2="103.7375" y2="103.7375" gradientUnits="userSpaceOnUse" id="d"><stop offset="0" stop-color="#2aa4f4"/><stop offset="1" stop-color="#007ad9"/></linearGradient></defs><g fill="none" stroke-miterlimit="10" font-family="none" font-weight="none" font-size="none" text-anchor="none" style="mix-blend-mode:normal"><path d="M0 172V0h172v172z"/><path d="M121.83333 86c0 19.78358-16.04975 35.83333-35.83333 35.83333-19.78358 0-35.83333-16.04975-35.83333-35.83333 0-19.78358 16.04975-35.83333 35.83333-35.83333 19.78358 0 35.83333 16.04975 35.83333 35.83333z" fill="#fff"/><path d="M112.26583 104.66917l-29.24 52.92583C44.8275 156.05417 14.33333 124.55667 14.33333 86 14.33333 46.44 46.44 14.33333 86 14.33333V53.75c-17.80917 0-32.25 14.44083-32.25 32.25S68.19083 118.25 86 118.25c10.8575 0 20.425-5.33917 26.26583-13.58083z" fill="url(#a)"/><path d="M157.66667 86c0 39.59583-32.07083 71.66667-71.66667 71.66667h-3.01l29.27583-52.9975C116.02833 99.40167 118.25 92.95167 118.25 86c0-17.80917-14.44083-32.25-32.25-32.25V14.33333c27.98583 0 52.1375 16.05333 63.9625 39.41667 4.87333 9.71083 7.70417 20.64 7.70417 32.25z" fill="url(#b)"/><path d="M149.92667 53.75H86c-17.80917 0-32.25 14.44083-32.25 32.25 0 5.33917 1.29 10.35583 3.61917 14.79917h-.03583L25.65667 47.515H25.585C38.27 27.55583 60.59417 14.33333 86 14.33333c27.95 0 52.1375 16.05333 63.92667 39.41667z" fill="url(#c)"/><path d="M111.08333 86c0 13.85675-11.22658 25.08333-25.08333 25.08333S60.91667 99.85675 60.91667 86 72.14325 60.91667 86 60.91667 111.08333 72.14325 111.08333 86z" fill="url(#d)"/></g></svg>