<svg xmlns="http://www.w3.org/2000/svg" width="32" height="32" viewBox="0 0 172 172"><defs><linearGradient x1="17.91667" y1="86" x2="154.08333" y2="86" gradientUnits="userSpaceOnUse" id="a"><stop offset="0" stop-color="#fff"/><stop offset="1" stop-color="#fff"/></linearGradient><linearGradient x1="32.25" y1="86" x2="139.75" y2="86" gradientUnits="userSpaceOnUse" id="c"><stop offset="0" stop-color="#fff"/><stop offset="1" stop-color="#fff"/></linearGradient><radialGradient cx="86" cy="86" r="60.91667" gradientUnits="userSpaceOnUse" id="b"><stop offset="0" stop-color="#ccc"/><stop offset=".64" stop-color="#ccc" stop-opacity=".989"/><stop offset=".976" stop-color="#ccc" stop-opacity="0"/></radialGradient></defs><g fill="none" stroke-miterlimit="10" font-family="none" font-weight="none" font-size="none" text-anchor="none" style="mix-blend-mode:normal"><path d="M0 172V0h172v172z"/><path d="M86 17.91667c-37.59992 0-68.08333 30.48342-68.08333 68.08333 0 37.59992 30.48342 68.08333 68.08333 68.08333 37.59992 0 68.08333-30.48342 68.08333-68.08333 0-37.59992-30.48342-68.08333-68.08333-68.08333zm0 118.25c-27.7135 0-50.16667-22.45317-50.16667-50.16667 0-27.7135 22.45317-50.16667 50.16667-50.16667 27.7135 0 50.16667 22.45317 50.16667 50.16667 0 27.7135-22.45317 50.16667-50.16667 50.16667z" fill="url(#a)"/><path d="M86 25.08333c-33.64392 0-60.91667 27.27275-60.91667 60.91667 0 33.64392 27.27275 60.91667 60.91667 60.91667 33.64392 0 60.91667-27.27275 60.91667-60.91667 0-33.64392-27.27275-60.91667-60.91667-60.91667zm0 108.2955c-26.17267 0-47.37883-21.20617-47.37883-47.37883 0-26.17267 21.20617-47.37883 47.37883-47.37883 26.17267 0 47.37883 21.20617 47.37883 47.37883 0 26.17267-21.20617 47.37883-47.37883 47.37883z" fill="url(#b)"/><path d="M86 139.75c-29.63775 0-53.75-24.11225-53.75-53.75S56.36225 32.25 86 32.25 139.75 56.36225 139.75 86 115.63775 139.75 86 139.75zm0-97.09758c-23.90083 0-43.34758 19.44675-43.34758 43.34758S62.09917 129.34758 86 129.34758 129.34758 109.90083 129.34758 86 109.90083 42.65242 86 42.65242z" fill="url(#c)"/></g></svg>