<svg xmlns="http://www.w3.org/2000/svg" width="32" height="32" viewBox="0 0 172 172"><g fill="none" stroke-miterlimit="10" font-family="none" font-weight="none" font-size="none" text-anchor="none" style="mix-blend-mode:normal"><path d="M0 172V0h172v172z"/><path d="M112.875 10.75C86.20996 10.75 64.5 32.45996 64.5 59.125c0 11.37989 4.11524 21.75196 10.75 30.02442l-53.49804 53.49804 7.55859 7.64258L82.85058 96.75c8.27247 6.63477 18.64453 10.75 30.02442 10.75 26.66504 0 48.375-21.70996 48.375-48.375S139.54004 10.75 112.875 10.75zm0 10.75c20.82813 0 37.625 16.79688 37.625 37.625 0 20.82813-16.79687 37.625-37.625 37.625-20.82812 0-37.625-16.79687-37.625-37.625 0-20.82812 16.79688-37.625 37.625-37.625z" fill="#fff"/></g></svg>